<svg xmlns="http://www.w3.org/2000/svg" viewBox="0 0 64 64">
  <rect width="64" height="64" rx="15" fill="#082a22"/>

  <!-- Rain -->
  <g stroke="#86d5db" stroke-width="2.6" stroke-linecap="round" opacity=".85">
    <path d="m8 17-3 6M14 8l-3 6M55 13l-3 6M61 23l-3 6"/>
  </g>

  <!-- Leaf umbrella -->
  <path d="M11 25C18 8 40 5 55 18c-10 1-16 5-22 12-5-4-12-6-22-5Z" fill="#8fcf5a"/>
  <path d="M13 23c14-3 26-6 40-5" fill="none" stroke="#d7ee9c" stroke-width="2"/>
  <path d="M34 18c-1 7-1 12 2 17" fill="none" stroke="#d7ee9c" stroke-width="2.4" stroke-linecap="round"/>

  <!-- Frog -->
  <ellipse cx="33" cy="45" rx="13" ry="11" fill="#e9b949"/>
  <circle cx="26" cy="36" r="6.5" fill="#e9b949"/>
  <circle cx="40" cy="36" r="6.5" fill="#e9b949"/>
  <circle cx="26" cy="35" r="2.5" fill="#fff"/>
  <circle cx="40" cy="35" r="2.5" fill="#fff"/>
  <circle cx="27" cy="36" r="1.3" fill="#082a22"/>
  <circle cx="39" cy="36" r="1.3" fill="#082a22"/>
  <path d="M28 46c3 2 7 2 10 0" fill="none" stroke="#a14f32" stroke-width="2" stroke-linecap="round"/>
  <path d="m23 50-8 6M43 50l7 6" fill="none" stroke="#e9b949" stroke-width="5" stroke-linecap="round"/>
</svg>
