<svg xmlns="http://www.w3.org/2000/svg" viewBox="0 0 72 72" role="img" aria-label="Águia Amazonas emblem">
  <defs>
    <clipPath id="brand-circle">
      <circle cx="36" cy="36" r="31"/>
    </clipPath>
    <linearGradient id="brand-river" x1="0" y1="0" x2="1" y2="1">
      <stop offset="0" stop-color="#46b6bf"/>
      <stop offset="1" stop-color="#19816f"/>
    </linearGradient>
  </defs>
  <circle cx="36" cy="36" r="33" fill="#f6f1e5"/>
  <g clip-path="url(#brand-circle)">
    <path d="M5 5h62v35H5z" fill="#e9b949"/>
    <circle cx="51" cy="18" r="11" fill="#f8d778"/>
    <path d="M5 39c12-6 21-5 31 0 10 5 19 6 31-1v34H5z" fill="url(#brand-river)"/>
    <path d="M4 52c13-7 23-7 34-1 10 5 19 5 31-2" fill="none" stroke="#f6f1e5" stroke-width="2.3" opacity=".9"/>
    <path d="M5 61c12-5 22-5 31 0 10 5 20 5 32-1" fill="none" stroke="#f6f1e5" stroke-width="1.7" opacity=".62"/>
    <path d="M9 36c8-2 15-7 21-15 2 4 4 7 7 9 3-2 6-5 9-9 5 8 11 13 19 15-9 2-17 0-24-4 1 6 5 11 11 15-7 0-12-2-16-6-4 4-9 6-16 6 6-4 10-9 11-15-7 4-14 6-22 4Z" fill="#082a22"/>
    <path d="m36 30 7-3-5 7Z" fill="#f6f1e5"/>
  </g>
  <circle cx="36" cy="36" r="31" fill="none" stroke="#082a22" stroke-width="2"/>
</svg>
